HIERARCHY
ROOT hip
{
  OFFSET 0 0 0
  CHANNELS 6 Xposition Yposition Zposition Zrotation Yrotation Xrotation
  JOINT abdomen
  {
    OFFSET 0 20.6881 -0.73152
    CHANNELS 3 Zrotation Xrotation Yrotation
    JOINT chest
    {
      OFFSET 0 11.7043 -0.48768
      CHANNELS 3 Zrotation Xrotation Yrotation
      JOINT neck
      {
        OFFSET 0 22.1894 -2.19456
        CHANNELS 3 Zrotation Xrotation Yrotation
        JOINT head
        {
          OFFSET -0.24384 7.07133 1.2192
          CHANNELS 3 Zrotation Xrotation Yrotation
          JOINT leftEye
          {
            OFFSET 4.14528 8.04674 8.04672
            CHANNELS 3 Zrotation Xrotation Yrotation
            End Site
            {
              OFFSET 1 0 0
            }
          }
          JOINT rightEye
          {
            OFFSET -3.6576 8.04674 8.04672
            CHANNELS 3 Zrotation Xrotation Yrotation
            End Site
            {
              OFFSET 1 0 0
            }
          }
        }
      }
      JOINT rCollar
      {
        OFFSET -2.68224 19.2634 -4.8768
        CHANNELS 3 Zrotation Xrotation Yrotation
        JOINT rShldr
        {
          OFFSET -8.77824 -1.95073 1.46304
          CHANNELS 3 Zrotation Xrotation Yrotation
          JOINT rForeArm
          {
            OFFSET -28.1742 -1.7115 0.48768
            CHANNELS 3 Zrotation Xrotation Yrotation
            JOINT rHand
            {
              OFFSET -22.5879 0.773209 7.07136
              CHANNELS 3 Zrotation Xrotation Yrotation
              JOINT rThumb1
              {
                OFFSET -1.2192 -0.487915 3.41376
                CHANNELS 3 Zrotation Xrotation Yrotation
                JOINT rThumb2
                {
                  OFFSET -3.37035 -0.52449 3.41376
                  CHANNELS 3 Zrotation Xrotation Yrotation
                  End Site
                  {
                    OFFSET -1.78271 -1.18214 1.43049
                  }
                }
              }
              JOINT rIndex1
              {
                OFFSET -7.75947 0.938293 5.60832
                CHANNELS 3 Zrotation Xrotation Yrotation
                JOINT rIndex2
                {
                  OFFSET -2.54057 -0.884171 1.56538
                  CHANNELS 3 Zrotation Xrotation Yrotation
                  End Site
                  {
                    OFFSET -1.62519 -0.234802 1.16502
                  }
                }
              }
              JOINT rMid1
              {
                OFFSET -8.24714 1.18213 3.41376
                CHANNELS 3 Zrotation Xrotation Yrotation
                JOINT rMid2
                {
                  OFFSET -3.10165 -0.590103 1.0647
                  CHANNELS 3 Zrotation Xrotation Yrotation
                  End Site
                  {
                    OFFSET -2.48547 -0.328903 0.83742
                  }
                }
              }
              JOINT rRing1
              {
                OFFSET -8.82822 0.546677 1.51678
                CHANNELS 3 Zrotation Xrotation Yrotation
                JOINT rRing2
                {
                  OFFSET -2.60934 -0.819778 -0.0198488
                  CHANNELS 3 Zrotation Xrotation Yrotation
                  End Site
                  {
                    OFFSET -2.33842 -0.294052 0.168128
                  }
                }
              }
              JOINT rPinky1
              {
                OFFSET -8.27202 -0.0477905 -0.4584
                CHANNELS 3 Zrotation Xrotation Yrotation
                JOINT rPinky2
                {
                  OFFSET -1.82734 -0.647385 -0.700984
                  CHANNELS 3 Zrotation Xrotation Yrotation
                  End Site
                  {
                    OFFSET -1.69225 -0.51767 -0.607171
                  }
                }
              }
            }
          }
        }
      }
      JOINT lCollar
      {
        OFFSET 2.68224 19.2634 -4.8768
        CHANNELS 3 Zrotation Xrotation Yrotation
        JOINT lShldr
        {
          OFFSET 8.77824 -1.95073 1.46304
          CHANNELS 3 Zrotation Xrotation Yrotation
          JOINT lForeArm
          {
            OFFSET 28.1742 -1.7115 0.48768
            CHANNELS 3 Zrotation Xrotation Yrotation
            JOINT lHand
            {
              OFFSET 22.5879 0.773209 7.07136
              CHANNELS 3 Zrotation Xrotation Yrotation
              JOINT lThumb1
              {
                OFFSET 1.2192 -0.487915 3.41376
                CHANNELS 3 Zrotation Xrotation Yrotation
                JOINT lThumb2
                {
                  OFFSET 3.37035 -0.52449 3.41376
                  CHANNELS 3 Zrotation Xrotation Yrotation
                  End Site
                  {
                    OFFSET 1.78271 -1.18214 1.43049
                  }
                }
              }
              JOINT lIndex1
              {
                OFFSET 7.75947 0.938293 5.60832
                CHANNELS 3 Zrotation Xrotation Yrotation
                JOINT lIndex2
                {
                  OFFSET 2.54057 -0.884171 1.56538
                  CHANNELS 3 Zrotation Xrotation Yrotation
                  End Site
                  {
                    OFFSET 1.62519 -0.234802 1.16502
                  }
                }
              }
              JOINT lMid1
              {
                OFFSET 8.24714 1.18213 3.41376
                CHANNELS 3 Zrotation Xrotation Yrotation
                JOINT lMid2
                {
                  OFFSET 3.10165 -0.590103 1.0647
                  CHANNELS 3 Zrotation Xrotation Yrotation
                  End Site
                  {
                    OFFSET 2.48547 -0.328903 0.83742
                  }
                }
              }
              JOINT lRing1
              {
                OFFSET 8.82822 0.546677 1.51678
                CHANNELS 3 Zrotation Xrotation Yrotation
                JOINT lRing2
                {
                  OFFSET 2.60934 -0.819778 -0.0198488
                  CHANNELS 3 Zrotation Xrotation Yrotation
                  End Site
                  {
                    OFFSET 2.33842 -0.294052 0.168128
                  }
                }
              }
              JOINT lPinky1
              {
                OFFSET 8.27202 -0.0477905 -0.4584
                CHANNELS 3 Zrotation Xrotation Yrotation
                JOINT lPinky2
                {
                  OFFSET 1.82734 -0.647385 -0.700984
                  CHANNELS 3 Zrotation Xrotation Yrotation
                  End Site
                  {
                    OFFSET 1.69225 -0.51767 -0.607171
                  }
                }
              }
            }
          }
        }
      }
    }
  }
  JOINT rButtock
  {
    OFFSET -8.77824 4.35084 1.2192
    CHANNELS 3 Zrotation Xrotation Yrotation
    JOINT rThigh
    {
      OFFSET 0 -1.70687 -2.19456
      CHANNELS 3 Zrotation Xrotation Yrotation
      JOINT rShin
      {
        OFFSET 0 -36.8199 0.73152
        CHANNELS 3 Zrotation Xrotation Yrotation
        JOINT rFoot
        {
          OFFSET 0.73152 -45.1104 -5.12064
          CHANNELS 3 Zrotation Xrotation Yrotation
          End Site
          {
            OFFSET -1.1221 -3.69964 12.103
          }
        }
      }
    }
  }
  JOINT lButtock
  {
    OFFSET 8.77824 4.35084 1.2192
    CHANNELS 3 Zrotation Xrotation Yrotation
    JOINT lThigh
    {
      OFFSET 0 -1.70687 -2.19456
      CHANNELS 3 Zrotation Xrotation Yrotation
      JOINT lShin
      {
        OFFSET 0 -36.8199 0.73152
        CHANNELS 3 Zrotation Xrotation Yrotation
        JOINT lFoot
        {
          OFFSET -0.73152 -45.1104 -5.12064
          CHANNELS 3 Zrotation Xrotation Yrotation
          End Site
          {
            OFFSET 1.1221 -3.69964 12.103
          }
        }
      }
    }
  }
}
MOTION
Frames:	5
Frame Time:	0.00833333
6.81447 85.2343 -186.25 0.0 0.0 0.0 0.705191 -0.00371385 0.0199544 0.19458 -0.00526911 0.0337142 -9.63901e-15 0.0 1.24241e-17 -2.92741e-14 3.18055e-15 5.90142e-17 -0.0 0.0 0.0 -0.0 0.0 0.0 -4.77224e-15 1.2424e-17 1.49089e-16 -9.98569e-14 4.9075e-16 5.96354e-16 -1.76392e-12 5.39104e-13 2.22639e-14 -2.02071e-11 -4.7517e-13 -1.59028e-14 -4.76684e-11 1.34878e-13 3.18055e-14 -8.23263e-11 2.29e-13 5.80451e-14 -4.7663e-11 1.35969e-13 2.22639e-14 7.73091 5.47488 0.417314 -4.76698e-11 1.34677e-13 3.18055e-14 2.90554 0.965183 0.102902 -4.7664e-11 1.34776e-13 2.94201e-14 10.2786 0.731801 0.0259123 -4.76688e-11 1.37161e-13 3.49861e-14 2.22167 -0.733487 -0.20892 -4.86913e-15 1.20358e-17 -1.49089e-16 -1.04159e-13 3.72721e-16 -1.19271e-15 -1.76521e-12 -5.19822e-13 1.27222e-14 -2.02107e-11 5.7327e-13 9.54166e-15 -4.76739e-11 1.15097e-13 2.22639e-14 -8.23235e-11 1.90833e-13 5.08889e-14 -4.76777e-11 1.145e-13 3.18055e-14 -7.73091 5.47488 -0.417314 -4.76741e-11 1.15295e-13 2.54444e-14 -2.90554 0.965183 -0.102902 -4.76807e-11 1.14997e-13 3.02153e-14 -10.2786 0.731801 -0.0259123 -4.76688e-11 1.18873e-13 2.54444e-14 -2.22167 -0.733487 0.20892 -2.03217e-16 0.0 -3.88251e-19 1.03764 -4.8484 -0.0878799 -0.00129034 3.22992 0.00172256 -0.507948 1.61856 0.0909439 2.03217e-16 0.0 3.88251e-19 0.0357812 -2.16335 0.0186171 0.00864566 -1.63357 0.0730558 0.4982 3.79689 -0.134165
7.2221 83.522 -187.441 0.4386 4.4319 3.6249 -1.36584 1.6858 -1.9763 0.594296 -0.525954 -0.559581 -0.688023 1.95019 -2.5162 4.56326 -5.32441 -4.19228 -0.0 0.0 0.0 -0.0 0.0 0.0 1.13722e-14 -1.06074e-14 1.35539e-15 21.5838 -3.60341 -0.233493 -2.53944 -0.946214 4.16334 0.0023853 1.08339 0.152162 -2.9198e-10 2.13753e-11 1.98843e-10 -5.03991e-10 3.7374e-11 3.44864e-10 -2.91977e-10 2.13758e-11 1.98835e-10 7.73091 5.47488 0.417314 -2.91981e-10 2.13747e-11 1.98842e-10 2.90554 0.965183 0.102902 -2.91978e-10 2.13748e-11 1.9884e-10 10.2786 0.731801 0.0259123 -2.91983e-10 2.13777e-11 1.98844e-10 2.22167 -0.733487 -0.20892 1.12783e-14 -1.06076e-14 1.05371e-15 -20.5634 4.80176 0.970868 4.72071 -2.25494 -7.25024 -0.00299286 1.21805 -0.171047 -3.13702e-10 -3.17528e-10 -1.50395e-10 -5.42759e-10 -5.49075e-10 -2.58587e-10 -3.13705e-10 -3.17527e-10 -1.50387e-10 -7.73091 5.47488 -0.417314 -3.137e-10 -3.17526e-10 -1.50394e-10 -2.90554 0.965183 -0.102902 -3.13709e-10 -3.17527e-10 -1.50389e-10 -10.2786 0.731801 -0.0259123 -3.13697e-10 -3.17523e-10 -1.50394e-10 -2.22167 -0.733487 0.20892 -2.03217e-16 0.0 -3.88251e-19 0.506938 -9.24732 -1.93731 0.00545087 13.1711 0.160021 -0.635474 -3.52912 -0.837161 2.03217e-16 0.0 3.88251e-19 -1.13426 -5.80551 -1.08907 -0.00186608 6.61569 -0.0525701 0.421278 -2.03529 -0.688104
7.11665 83.5408 -187.432 0.2871 4.3337 3.5976 -3.43566 3.47305 -4.09535 1.00703 -1.07576 -1.18807 -1.22733 4.00368 -5.1888 8.54342 -10.8649 -8.748 -0.0 0.0 0.0 -0.0 0.0 0.0 2.88795e-14 -2.37992e-14 3.63093e-15 44.3659 -7.41004 -0.478328 -5.07583 -1.93033 8.56973 -0.00135502 2.22916 0.31327 -5.75442e-10 4.20572e-11 4.23931e-10 -9.93295e-10 7.35893e-11 7.35259e-10 -5.75442e-10 4.2057e-11 4.23925e-10 7.73091 5.47488 0.417314 -5.75443e-10 4.2056e-11 4.23931e-10 2.90554 0.965183 0.102902 -5.75442e-10 4.20562e-11 4.23929e-10 10.2786 0.731801 0.0259123 -5.75447e-10 4.20597e-11 4.23931e-10 2.22167 -0.733487 -0.20892 2.87886e-14 -2.37993e-14 3.32343e-15 -42.4795 9.89716 2.0134 9.10463 -4.52497 -14.9639 0.0017564 2.49359 -0.350431 -6.05926e-10 -6.69764e-10 -3.17829e-10 -1.04851e-09 -1.15814e-09 -5.46508e-10 -6.05928e-10 -6.69763e-10 -3.17824e-10 -7.73091 5.47488 -0.417314 -6.05923e-10 -6.69761e-10 -3.17832e-10 -2.90554 0.965183 -0.102902 -6.05933e-10 -6.69762e-10 -3.17825e-10 -10.2786 0.731801 -0.0259123 -6.05922e-10 -6.69758e-10 -3.17832e-10 -2.22167 -0.733487 0.20892 -2.03217e-16 0.0 -3.88251e-19 -0.379529 -13.8922 -3.96744 -0.0524252 23.707 0.34851 -0.956301 -8.96644 -1.84911 2.03217e-16 0.0 3.88251e-19 -2.53118 -9.65083 -2.28367 0.0273937 15.3365 -0.191379 0.215035 -8.19673 -1.29212
7.06087 83.5506 -187.423 0.1928 4.2308 3.5629 -5.15428 5.04033 -5.98947 1.36137 -1.56667 -1.74675 -1.54961 5.80536 -7.58333 11.2975 -15.625 -13.0113 -0.0 0.0 0.0 -0.0 0.0 0.0 4.36611e-14 -3.18471e-14 3.76798e-15 64.6618 -10.8095 -0.711724 -7.20902 -2.77876 12.5032 -0.0101307 3.25008 0.45714 -7.80604e-10 6.38563e-11 5.96464e-10 -1.34732e-09 1.11664e-10 1.03448e-09 -7.80606e-10 6.38554e-11 5.96459e-10 7.73091 5.47488 0.417314 -7.80605e-10 6.38546e-11 5.96463e-10 2.90554 0.965183 0.102902 -7.80605e-10 6.38548e-11 5.96461e-10 10.2786 0.731801 0.0259123 -7.80611e-10 6.38587e-11 5.96463e-10 2.22167 -0.733487 -0.20892 4.35733e-14 -3.18469e-14 3.45932e-15 -62.1915 14.3885 2.99645 12.487 -6.33247 -21.8741 0.0128766 3.654 -0.514071 -8.45758e-10 -9.52813e-10 -4.51228e-10 -1.46363e-09 -1.64761e-09 -7.75862e-10 -8.45759e-10 -9.52811e-10 -4.51225e-10 -7.73091 5.47488 -0.417314 -8.45753e-10 -9.52809e-10 -4.51234e-10 -2.90554 0.965183 -0.102902 -8.45764e-10 -9.5281e-10 -4.51227e-10 -10.2786 0.731801 -0.0259123 -8.45753e-10 -9.52807e-10 -4.51234e-10 -2.22167 -0.733487 0.20892 -2.03217e-16 0.0 -3.88251e-19 -1.44504 -17.9728 -5.8475 -0.173805 33.0522 0.55358 -1.40243 -13.8101 -2.76863 2.03217e-16 0.0 3.88251e-19 -3.9066 -13.071 -3.37521 0.0923117 23.1139 -0.329133 -0.0790415 -13.6932 -1.84781
6.99592 83.5571 -187.42 0.236 4.0253 3.5899 -6.24813 6.08149 -7.30103 1.59261 -1.91098 -2.13034 -1.69536 7.02106 -9.24916 12.7042 -18.768 -16.1255 -0.0 0.0 0.0 -0.0 0.0 0.0 5.16287e-14 -2.70355e-14 -1.44119e-15 78.8023 -13.1916 -0.906428 -8.6222 -3.34514 15.2419 -0.0192611 3.95893 0.557287 -7.90016e-10 8.8448e-11 6.37606e-10 -1.36315e-09 1.54387e-10 1.10576e-09 -7.90018e-10 8.84469e-11 6.37603e-10 7.73091 5.47488 0.417314 -7.90017e-10 8.84464e-11 6.37606e-10 2.90554 0.965183 0.102902 -7.90018e-10 8.84465e-11 6.37604e-10 10.2786 0.731801 0.0259123 -7.90024e-10 8.84504e-11 6.37606e-10 2.22167 -0.733487 -0.20892 5.15439e-14 -2.70343e-14 -1.73937e-15 -76.036 17.3852 3.75039 14.5443 -7.40214 -26.6557 0.0251977 4.52672 -0.637529 -9.54607e-10 -1.06289e-09 -4.99541e-10 -1.65215e-09 -1.83807e-09 -8.58798e-10 -9.54608e-10 -1.06289e-09 -4.99538e-10 -7.73091 5.47488 -0.417314 -9.54602e-10 -1.06289e-09 -4.99547e-10 -2.90554 0.965183 -0.102902 -9.54613e-10 -1.06289e-09 -4.9954e-10 -10.2786 0.731801 -0.0259123 -9.54602e-10 -1.06289e-09 -4.99547e-10 -2.22167 -0.733487 0.20892 -2.03217e-16 0.0 -3.88251e-19 -2.30343 -20.7098 -7.16374 -0.307591 39.4219 0.728694 -1.78604 -17.1847 -3.37937 2.03217e-16 0.0 3.88251e-19 -4.91807 -15.4459 -4.14516 0.163046 28.5331 -0.438654 -0.339595 -17.5338 -2.22794
